<?xml version="1.0" encoding="utf-8"?><svg version="1.1" id="Layer_1" xmlns="http://www.w3.org/2000/svg" xmlns:xlink="http://www.w3.org/1999/xlink" x="0px" y="0px" viewBox="0 0 122.88 75.49" style="enable-background:new 0 0 122.88 75.49" xml:space="preserve"><g><path d="M95.05,12.23c0.08-1.55,0.32-3.09,0.55-4.66c0.5-3.3,1.01-1.88-0.11-5.02c-0.36-0.99,0.16-2.09,1.15-2.44 c0.99-0.36,2.09,0.16,2.44,1.15c1.46,4.07,0.88,3.12,0.31,6.88c-0.21,1.39-0.42,2.76-0.5,4.09h0c0.99,0,1.89,0.4,2.54,1.05 c0.05,0.05,0.1,0.1,0.14,0.16c0.57,0.64,0.91,1.47,0.91,2.38v0.19h11.33c2.49,0,4.76,1.02,6.4,2.66c1.64,1.64,2.66,3.91,2.66,6.4 v41.35c0,2.49-1.02,4.76-2.66,6.4c-1.64,1.64-3.91,2.66-6.4,2.66H9.06c-2.49,0-4.76-1.02-6.4-2.66C1.02,71.19,0,68.92,0,66.43 V25.08c0-2.49,1.02-4.76,2.66-6.4c1.64-1.64,3.91-2.66,6.4-2.66h81.26v-0.19c0-0.98,0.4-1.88,1.05-2.53l0,0l0,0l0,0 c0.65-0.65,1.55-1.05,2.53-1.05H95.05L95.05,12.23z M92.24,19.85H9.06c-1.44,0-2.74,0.59-3.69,1.54c-0.95,0.95-1.54,2.25-1.54,3.69 v41.35c0,1.44,0.59,2.74,1.54,3.69c0.95,0.95,2.25,1.54,3.69,1.54h104.75c1.44,0,2.74-0.59,3.69-1.54 c0.95-0.95,1.54-2.25,1.54-3.69V25.08c0-1.44-0.59-2.74-1.54-3.69c-0.95-0.95-2.25-1.54-3.69-1.54h-13.24 c-1.06,0-1.92-0.86-1.92-1.92v-1.87h-4.49v1.87C94.16,18.99,93.3,19.85,92.24,19.85L92.24,19.85z M12.26,25.74h7.75 c1.06,0,1.92,0.86,1.92,1.92v6.54c0,1.06-0.86,1.92-1.92,1.92h-7.75c-1.06,0-1.92-0.86-1.92-1.92v-6.54 C10.34,26.6,11.2,25.74,12.26,25.74L12.26,25.74z M27.61,25.74h7.75c1.06,0,1.92,0.86,1.92,1.92v6.54c0,1.06-0.86,1.92-1.92,1.92 h-7.75c-1.06,0-1.92-0.86-1.92-1.92v-6.54C25.69,26.6,26.55,25.74,27.61,25.74L27.61,25.74z M42.97,25.74h7.75 c1.06,0,1.92,0.86,1.92,1.92v6.54c0,1.06-0.86,1.92-1.92,1.92h-7.75c-1.06,0-1.92-0.86-1.92-1.92v-6.54 C41.05,26.6,41.91,25.74,42.97,25.74L42.97,25.74z M58.32,25.74h7.75c1.06,0,1.92,0.86,1.92,1.92v6.54c0,1.06-0.86,1.92-1.92,1.92 h-7.75c-1.06,0-1.92-0.86-1.92-1.92v-6.54C56.41,26.6,57.26,25.74,58.32,25.74L58.32,25.74z M73.68,25.74h7.75 c1.06,0,1.92,0.86,1.92,1.92v6.54c0,1.06-0.86,1.92-1.92,1.92h-7.75c-1.06,0-1.92-0.86-1.92-1.92v-6.54 C71.76,26.6,72.62,25.74,73.68,25.74L73.68,25.74z M89.03,25.74h7.75c1.06,0,1.92,0.86,1.92,1.92v6.54c0,1.06-0.86,1.92-1.92,1.92 h-7.75c-1.06,0-1.92-0.86-1.92-1.92v-6.54C87.12,26.6,87.98,25.74,89.03,25.74L89.03,25.74z M104.39,25.74h7.75 c1.06,0,1.92,0.86,1.92,1.92v6.54c0,1.06-0.86,1.92-1.92,1.92h-7.75c-1.06,0-1.92-0.86-1.92-1.92v-6.54 C102.47,26.6,103.33,25.74,104.39,25.74L104.39,25.74z M104.39,39.86h7.75c1.06,0,1.92,0.87,1.92,1.94v20.68 c0,1.07-0.86,1.94-1.92,1.94h-7.75c-1.06,0-1.92-0.87-1.92-1.94V41.8C102.47,40.73,103.33,39.86,104.39,39.86L104.39,39.86z M12.26,40.03h7.75c1.06,0,1.92,0.86,1.92,1.92v6.54c0,1.06-0.86,1.92-1.92,1.92h-7.75c-1.06,0-1.92-0.86-1.92-1.92v-6.54 C10.34,40.89,11.2,40.03,12.26,40.03L12.26,40.03z M27.61,40.03h7.75c1.06,0,1.92,0.86,1.92,1.92v6.54c0,1.06-0.86,1.92-1.92,1.92 h-7.75c-1.06,0-1.92-0.86-1.92-1.92v-6.54C25.69,40.89,26.55,40.03,27.61,40.03L27.61,40.03z M42.97,40.03h7.75 c1.06,0,1.92,0.86,1.92,1.92v6.54c0,1.06-0.86,1.92-1.92,1.92h-7.75c-1.06,0-1.92-0.86-1.92-1.92v-6.54 C41.05,40.89,41.91,40.03,42.97,40.03L42.97,40.03z M58.32,40.03h7.75c1.06,0,1.92,0.86,1.92,1.92v6.54c0,1.06-0.86,1.92-1.92,1.92 h-7.75c-1.06,0-1.92-0.86-1.92-1.92v-6.54C56.41,40.89,57.26,40.03,58.32,40.03L58.32,40.03z M73.68,40.03h7.75 c1.06,0,1.92,0.86,1.92,1.92v6.54c0,1.06-0.86,1.92-1.92,1.92h-7.75c-1.06,0-1.92-0.86-1.92-1.92v-6.54 C71.76,40.89,72.62,40.03,73.68,40.03L73.68,40.03z M89.03,40.03h7.75c1.06,0,1.92,0.86,1.92,1.92v6.54c0,1.06-0.86,1.92-1.92,1.92 h-7.75c-1.06,0-1.92-0.86-1.92-1.92v-6.54C87.12,40.89,87.98,40.03,89.03,40.03L89.03,40.03z M12.26,54.17h7.75 c1.06,0,1.92,0.86,1.92,1.92v6.54c0,1.06-0.86,1.92-1.92,1.92h-7.75c-1.06,0-1.92-0.86-1.92-1.92v-6.54 C10.34,55.03,11.2,54.17,12.26,54.17L12.26,54.17z M27.61,54.17h38.47c1.05,0,1.9,0.86,1.9,1.92v6.54c0,1.06-0.85,1.92-1.9,1.92 H27.61c-1.05,0-1.9-0.86-1.9-1.92v-6.54C25.71,55.03,26.56,54.17,27.61,54.17L27.61,54.17z M73.68,54.17h7.75 c1.06,0,1.92,0.86,1.92,1.92v6.54c0,1.06-0.86,1.92-1.92,1.92h-7.75c-1.06,0-1.92-0.86-1.92-1.92v-6.54 C71.76,55.03,72.62,54.17,73.68,54.17L73.68,54.17z M89.03,54.17h7.75c1.06,0,1.92,0.86,1.92,1.92v6.54c0,1.06-0.86,1.92-1.92,1.92 h-7.75c-1.06,0-1.92-0.86-1.92-1.92v-6.54C87.12,55.03,87.98,54.17,89.03,54.17L89.03,54.17z"/></g></svg>